<?xml version="1.0" encoding="UTF-8" ?>
<!DOCTYPE svg PUBLIC "-//W3C//DTD SVG 1.1//EN" "http://www.w3.org/Graphics/SVG/1.1/DTD/svg11.dtd">
<svg width="332pt" height="273pt" viewBox="0 0 332 273" version="1.1" xmlns="http://www.w3.org/2000/svg">
<g id="#f5f5f5ff">
<path fill="#f5f5f5" opacity="1.00" d=" M 118.32 89.38 C 125.40 87.76 133.40 90.20 137.93 95.97 C 144.15 103.42 143.58 115.77 136.27 122.30 C 129.76 128.92 118.41 129.61 111.14 123.84 C 104.83 119.20 102.15 110.67 104.12 103.16 C 105.73 96.32 111.56 90.99 118.32 89.38 Z" />
<path fill="#f5f5f5" opacity="1.00" d=" M 231.37 96.45 C 237.52 94.97 244.88 95.73 249.28 100.73 C 254.81 107.06 255.56 115.96 255.86 124.00 C 255.53 131.22 255.13 138.92 251.15 145.20 C 245.14 155.06 228.05 154.58 222.79 144.23 C 217.80 135.39 218.30 124.75 219.07 114.96 C 219.81 107.37 223.40 98.76 231.37 96.45 M 235.38 103.36 C 230.18 104.46 228.42 110.34 228.00 114.98 C 227.37 122.84 226.95 131.03 229.22 138.68 C 230.35 143.27 235.76 146.25 240.13 144.19 C 243.55 142.86 245.08 139.16 245.78 135.83 C 247.37 127.25 247.53 118.25 245.12 109.81 C 244.07 105.61 239.78 102.27 235.38 103.36 Z" />
<path fill="#f5f5f5" opacity="1.00" d=" M 191.32 98.34 C 193.92 95.99 197.65 97.05 200.80 97.06 C 201.02 115.08 200.98 133.11 200.80 151.13 C 197.90 151.67 194.95 151.53 192.04 151.25 C 191.88 136.44 192.13 121.63 191.93 106.82 C 188.30 109.15 185.29 112.27 181.78 114.76 C 180.06 113.24 178.67 111.39 177.28 109.57 C 181.74 105.56 186.69 102.14 191.32 98.34 Z" />
<path fill="#f5f5f5" opacity="1.00" d=" M 88.20 141.22 C 90.46 137.58 94.55 134.79 98.94 134.91 C 114.98 134.96 131.01 134.88 147.05 134.91 C 152.19 134.85 156.72 138.77 158.54 143.40 C 159.93 147.43 159.50 151.78 159.26 155.96 C 134.87 156.02 110.47 156.05 86.08 155.94 C 86.02 150.99 85.48 145.63 88.20 141.22 Z" />
</g>
<g id="#ee4957ff">
<path fill="#ee4957" opacity="1.00" d=" M 74.31 35.26 C 106.20 34.81 138.10 35.22 170.00 35.08 C 198.34 35.05 226.69 35.09 255.04 35.07 C 264.43 35.05 273.81 38.91 280.27 45.77 C 286.04 52.03 289.64 60.44 289.45 69.02 C 289.42 104.01 289.45 138.99 289.44 173.97 C 289.34 184.60 283.62 194.91 274.87 200.87 C 269.13 204.96 262.05 206.85 255.06 206.93 C 241.02 206.97 226.98 206.85 212.95 206.97 C 205.40 206.95 198.43 210.99 193.41 216.40 C 186.94 222.93 180.41 229.40 173.94 235.93 C 170.12 240.25 162.65 240.48 158.58 236.40 C 151.37 229.28 144.27 222.06 137.08 214.91 C 132.31 210.20 125.83 206.98 119.05 206.96 C 105.35 206.87 91.66 206.94 77.96 206.95 C 71.37 206.97 64.64 205.52 58.97 202.07 C 48.97 196.10 42.36 184.67 42.56 172.98 C 42.58 138.00 42.53 103.01 42.58 68.04 C 42.60 51.05 57.38 35.93 74.31 35.26 M 118.32 89.38 C 111.56 90.99 105.73 96.32 104.12 103.16 C 102.15 110.67 104.83 119.20 111.14 123.84 C 118.41 129.61 129.76 128.92 136.27 122.30 C 143.58 115.77 144.15 103.42 137.93 95.97 C 133.40 90.20 125.40 87.76 118.32 89.38 M 231.37 96.45 C 223.40 98.76 219.81 107.37 219.07 114.96 C 218.30 124.75 217.80 135.39 222.79 144.23 C 228.05 154.58 245.14 155.06 251.15 145.20 C 255.13 138.92 255.53 131.22 255.86 124.00 C 255.56 115.96 254.81 107.06 249.28 100.73 C 244.88 95.73 237.52 94.97 231.37 96.45 M 191.32 98.34 C 186.69 102.14 181.74 105.56 177.28 109.57 C 178.67 111.39 180.06 113.24 181.78 114.76 C 185.29 112.27 188.30 109.15 191.93 106.82 C 192.13 121.63 191.88 136.44 192.04 151.25 C 194.95 151.53 197.90 151.67 200.80 151.13 C 200.98 133.11 201.02 115.08 200.80 97.06 C 197.65 97.05 193.92 95.99 191.32 98.34 M 88.20 141.22 C 85.48 145.63 86.02 150.99 86.08 155.94 C 110.47 156.05 134.87 156.02 159.26 155.96 C 159.50 151.78 159.93 147.43 158.54 143.40 C 156.72 138.77 152.19 134.85 147.05 134.91 C 131.01 134.88 114.98 134.96 98.94 134.91 C 94.55 134.79 90.46 137.58 88.20 141.22 Z" />
<path fill="#ee4957" opacity="1.00" d=" M 235.38 103.36 C 239.78 102.27 244.07 105.61 245.12 109.81 C 247.53 118.25 247.37 127.25 245.78 135.83 C 245.08 139.16 243.55 142.86 240.13 144.19 C 235.76 146.25 230.35 143.27 229.22 138.68 C 226.95 131.03 227.37 122.84 228.00 114.98 C 228.42 110.34 230.18 104.46 235.38 103.36 Z" />
</g>
</svg>
